<svg width="24" height="25" viewBox="0 0 24 25" fill="none" xmlns="http://www.w3.org/2000/svg">
<g clip-path="url(#clip0_17_28)">
<path d="M14.8611 14.7763H13.7698C12.8654 12.5541 10.362 12.4974 9.3899 12.4778C7.74902 12.444 7.53511 11.3485 7.51923 10.8788C7.51075 10.6299 7.30796 10.4324 7.0591 10.4303H7.00192C3.89278 10.4303 2.19419 12.8384 1.85214 14.7774H1.33536C0.599378 14.7758 0.000529869 15.3731 3.83729e-07 16.1107C-0.000529102 16.8159 0.546959 17.3999 1.25118 17.4444L2.13118 22.3284L2.20584 22.7425L2.51082 24.4352C2.55053 24.6566 2.74327 24.8175 2.96777 24.8175H13.1874C13.4124 24.8175 13.6046 24.6566 13.6443 24.4352L13.9493 22.7425L14.024 22.3284L14.9029 17.4487C15.6405 17.4232 16.2181 16.8048 16.1927 16.0667C16.1678 15.3482 15.5791 14.7779 14.8605 14.7763H14.8611V14.7763ZM6.64769 11.3718C6.85525 12.3704 7.64895 13.3711 9.37296 13.4066C10.6797 13.433 12.0638 13.6305 12.7442 14.7763H2.79674C3.18168 12.9126 4.75055 11.5253 6.64769 11.3718ZM12.8008 23.8899H3.35641L3.21874 23.1253H12.9375L12.8008 23.8899ZM13.2679 21.2964L13.1058 22.1966H3.05143L2.8894 21.2964L2.50182 19.1441H13.6538L13.2679 21.2964ZM13.8217 18.2148H2.33397L2.19684 17.4529H13.9588L13.8217 18.2148ZM14.8611 16.5237H1.33642C1.11033 16.5178 0.931895 16.3299 0.93772 16.1043C0.943014 15.8861 1.1188 15.7109 1.33642 15.7056H14.8611C15.0872 15.6998 15.2751 15.8782 15.2804 16.1043C15.2863 16.3304 15.1078 16.5184 14.8817 16.5237C14.8754 16.5242 14.868 16.5242 14.8611 16.5237Z" fill="black"/>
<path d="M18.8121 9.48467L20.67 6.60903C20.7526 6.48143 20.7675 6.32152 20.7098 6.18068L19.9282 4.27559L18.2927 0.288032C18.1952 0.0508226 17.9236 -0.0624873 17.6864 0.034938C17.4492 0.132363 17.3359 0.40399 17.4333 0.641199L18.8931 4.19828L18.4616 4.37513L17.0018 0.818047C16.9043 0.580838 16.6332 0.466998 16.3955 0.564424C16.1583 0.661849 16.0445 0.932946 16.1419 1.17069L17.6017 4.72777L17.1701 4.90462L15.7104 1.34753C15.6161 1.10926 15.3461 0.992248 15.1073 1.0865C14.869 1.18075 14.752 1.45078 14.8462 1.68958C14.8478 1.69329 14.8489 1.69646 14.8505 1.70017L16.3103 5.25726L15.8787 5.4341L14.4189 1.87702C14.3189 1.64087 14.0462 1.53074 13.81 1.63081C13.5781 1.72929 13.4669 1.99509 13.5596 2.22966L15.0194 5.78674L14.5878 5.96359L13.1281 2.4065C13.0338 2.16824 12.7638 2.05122 12.525 2.14547C12.2867 2.23972 12.1697 2.50975 12.2639 2.74855C12.2655 2.75226 12.2666 2.75544 12.2682 2.75914L13.728 6.31623L13.2964 6.49308L11.8366 2.93599C11.7392 2.69878 11.4681 2.58494 11.2304 2.68237C10.9932 2.77979 10.8793 3.05089 10.9767 3.28863L12.4365 6.84571L12.005 7.02256L10.5452 3.46548C10.4478 3.22827 10.1762 3.11496 9.93896 3.21185C9.70175 3.30928 9.58844 3.5809 9.68533 3.81811L11.3214 7.80514L12.1035 9.71129C12.1612 9.85213 12.284 9.95591 12.4328 9.98874L15.7755 10.73L21.7978 24.1011C21.9837 24.5327 22.4068 24.8138 22.8764 24.818C23.0199 24.818 23.1623 24.79 23.2952 24.7354C23.8724 24.4861 24.1482 23.8242 23.9184 23.2386L18.8121 9.48467ZM22.9431 23.8766C22.8203 23.9153 22.6895 23.8486 22.6482 23.7268L16.5273 10.1365C16.467 10.003 16.3473 9.90561 16.2044 9.87384L12.8712 9.13468L12.3576 7.88298L13.2181 7.52981L14.5084 7.00032L15.7993 6.47084L17.0891 5.94135L19.2452 5.05605L19.7588 6.30776L17.9056 9.17439C17.8262 9.29776 17.8092 9.45078 17.8601 9.58845L23.0501 23.5663C23.1036 23.6828 23.0564 23.8194 22.9431 23.8766Z" fill="black"/>
</g>
<defs>
<clipPath id="clip0_17_28">
<rect width="24" height="24.8186" fill="white"/>
</clipPath>
</defs>
</svg>
