<svg width="24" height="23" viewBox="0 0 24 23" fill="none" xmlns="http://www.w3.org/2000/svg">
<g clip-path="url(#clip0_17_42)">
<path d="M5.76458 3.05972C4.27159 3.05972 3.06122 4.26958 3.06122 5.76257C3.06122 7.25556 4.27107 8.46593 5.76407 8.46593C7.25706 8.46593 8.46743 7.25607 8.46743 5.76308C8.46589 4.2706 7.25655 3.06126 5.76458 3.05972ZM5.76458 7.56737C4.76771 7.56737 3.95978 6.75943 3.95978 5.76308C3.95978 4.76622 4.76771 3.95828 5.76407 3.95828C6.76093 3.95828 7.56887 4.76622 7.56887 5.76257C7.56887 5.76257 7.56887 5.76257 7.56887 5.76308C7.56835 6.75995 6.76093 7.56788 5.76458 7.56891V7.56737Z" fill="black"/>
<path d="M23.4408 1.21136C23.0998 1.04752 22.6954 1.09719 22.404 1.33783L21.4701 2.10173C18.5062 1.69162 6.23252 -2.86118e-05 5.76455 -2.86118e-05C2.58349 -0.00258861 0.00250079 2.57431 -5.92069e-05 5.75536C-0.00210721 8.33892 1.71668 10.6081 4.20448 11.306L5.4681 17.7203C5.64372 18.7755 6.53357 19.5645 7.60212 19.6121C7.84378 21.4308 9.51444 22.7087 11.3325 22.4665C12.9843 22.2469 14.2177 20.8373 14.2161 19.1708V16.1331C14.2156 15.3088 14.8833 14.6396 15.7076 14.6391C16.5319 14.6386 17.2011 15.3062 17.2016 16.1305C17.2016 16.1316 17.2016 16.1321 17.2016 16.1331V19.1718C17.2037 21.0063 18.6905 22.4932 20.525 22.4952H21.6033C21.8516 22.4952 22.0523 22.294 22.0523 22.0462C22.0523 21.7979 21.8511 21.5972 21.6033 21.5972H20.525C19.1861 21.5956 18.1012 20.5107 18.1002 19.1723V16.1331C18.1002 14.8126 17.0296 13.7421 15.7091 13.7421C14.3887 13.7421 13.3181 14.8126 13.3181 16.1331V19.1718C13.3176 20.5107 12.2321 21.5956 10.8933 21.5951C9.67572 21.5946 8.64762 20.6914 8.49044 19.4841C9.53184 19.1093 10.1524 18.0388 9.95885 16.9487L8.77562 11.1559C12.932 10.6066 20.2014 9.60304 21.4707 9.42743L22.4045 10.1913C22.8223 10.5328 23.4378 10.4714 23.7798 10.0536C23.9226 9.87901 24.0005 9.6609 24.0005 9.43511V2.09354C24.0015 1.71568 23.7834 1.37111 23.4408 1.21136ZM9.07565 17.1136C9.20877 17.8642 8.70804 18.5805 7.95744 18.7136C7.20685 18.8467 6.49056 18.346 6.35744 17.5954C6.3554 17.5831 6.35335 17.5708 6.3513 17.559L5.1568 11.4944C5.35853 11.5164 5.56128 11.5271 5.76455 11.5277C5.84903 11.5277 6.08404 11.5067 7.88218 11.2727L9.07565 17.1136ZM21.1548 8.56317C19.3899 8.80688 12.0586 9.81706 8.18016 10.3275C6.69127 10.5226 5.87514 10.624 5.76455 10.6291C5.40256 10.6296 5.04212 10.5886 4.68935 10.5072H4.68576H4.68116C2.06125 9.91485 0.417221 7.3098 1.01012 4.68938C1.51188 2.4714 3.48308 0.896996 5.75738 0.89802C6.21716 0.916964 15.0707 2.12375 21.1553 2.96394V8.56317H21.1548ZM23.1014 9.4346C23.1014 9.47812 23.0666 9.51293 23.023 9.51344C23.0046 9.51344 22.9872 9.5073 22.9734 9.49552L22.0543 8.74391V2.78372L22.9734 2.0321C22.9959 2.01111 23.0297 2.00701 23.0568 2.02186C23.0855 2.03364 23.1034 2.0618 23.1019 2.09252L23.1014 9.4346Z" fill="black"/>
</g>
<defs>
<clipPath id="clip0_17_42">
<rect width="24" height="22.4968" fill="white"/>
</clipPath>
</defs>
</svg>
