<svg width="24" height="38" viewBox="0 0 24 38" fill="none" xmlns="http://www.w3.org/2000/svg">
<g clip-path="url(#clip0_17_25)">
<path d="M11.9976 0C5.37364 0.00869393 0.00632286 5.37759 0 12.0016V34.5702C0 34.9449 0.298755 35.2515 0.673385 35.2618C0.61885 35.623 0.591187 35.9881 0.590397 36.3533C0.590397 36.7358 0.900217 37.0464 1.28275 37.0464H1.28354H22.7149C23.0974 37.0464 23.408 36.7366 23.408 36.3541V36.3533C23.4072 35.9881 23.3796 35.623 23.3258 35.2618C23.7005 35.2515 23.9992 34.9449 23.9992 34.5702V12.0016C23.9921 5.37601 18.6232 0.00711322 11.9976 0ZM1.38708 18.937C1.86287 19.4934 2.51018 19.8751 3.22782 20.0221C3.54001 23.0358 5.46848 25.6392 8.26003 26.8168V28.8212H8.12567C5.27089 28.8259 2.6643 30.4422 1.39024 32.9966L1.38708 18.937ZM1.97668 16.7943C1.9751 16.0838 2.37028 15.4317 3.0002 15.1045C3.06264 15.0721 3.12586 15.0437 3.19067 15.0184V18.5718C2.4588 18.2849 1.97747 17.5799 1.97668 16.7943ZM19.4215 14.7987V19.3013C19.4175 19.329 19.4151 19.3574 19.4151 19.3859C19.3875 22.1679 17.576 24.6489 14.801 25.7103C12.9959 26.3948 11.0026 26.3948 9.1966 25.7103C6.42324 24.6497 4.61174 22.1679 4.58249 19.3883C4.58328 19.3614 4.5817 19.3353 4.57775 19.3092V12.7279C6.66113 13.063 8.77929 13.1215 10.8777 12.9026C14.0241 12.5999 16.9437 11.7779 18.8635 10.6706C19.227 11.2594 19.4191 11.9368 19.4191 12.6291V14.7994H19.4215V14.7987ZM14.3553 27.3037V29.1658C14.326 29.21 14.3023 29.2567 14.2841 29.3065C14.2154 29.523 14.1031 29.723 13.9538 29.8937C13.9206 29.9316 13.8921 29.9727 13.8684 30.0162L11.9976 33.4558L10.13 30.017C10.1047 29.9712 10.0747 29.9285 10.0399 29.889C9.89133 29.7198 9.78068 29.5214 9.71429 29.3065C9.69611 29.2567 9.6724 29.21 9.64315 29.1658V27.3037C11.1875 27.7155 12.8117 27.7155 14.3553 27.3037ZM2.0162 35.6601C2.05098 35.3527 2.10946 35.0476 2.19087 34.7489C2.91721 32.0711 5.34756 30.2106 8.1225 30.2083H8.59277C8.69077 30.3987 8.81012 30.5781 8.94685 30.7425L11.3883 35.2381C11.5092 35.461 11.7431 35.6001 11.9976 35.6009C12.2513 35.6009 12.4853 35.4618 12.607 35.2381L15.0539 30.7402C15.1899 30.5758 15.3076 30.3972 15.4064 30.2083H15.8775C19.001 30.2138 21.6258 32.5572 21.9838 35.6601H2.0162V35.6601ZM22.6121 32.9856C22.2494 32.2624 21.7744 31.6017 21.2037 31.0279C19.7929 29.6115 17.8755 28.8172 15.8767 28.8212H15.7423V26.8168C18.5323 25.6384 20.46 23.035 20.7714 20.0221C21.489 19.8751 22.1371 19.4926 22.6129 18.9354V32.9856H22.6121ZM20.8077 18.5702V15.0176C20.8718 15.0437 20.935 15.0729 20.9974 15.1037C21.9308 15.5906 22.2928 16.7429 21.8052 17.6763C21.5918 18.085 21.2369 18.4027 20.8077 18.5702ZM22.6121 14.6524C22.1466 14.1031 21.5104 13.7246 20.8054 13.5776V12.6268C20.8046 11.4918 20.4284 10.3885 19.7352 9.48982C19.6918 9.43292 19.6459 9.37917 19.6001 9.32464L19.5716 9.29144C19.3424 9.01956 18.9441 8.96582 18.6509 9.16736C16.954 10.3276 13.9996 11.2073 10.7457 11.5203C8.53033 11.7653 6.29046 11.6633 4.1067 11.216C3.73365 11.129 3.36139 11.3614 3.27445 11.7344C3.27129 11.7479 3.26892 11.7613 3.26655 11.7747C3.21755 12.0561 3.19304 12.3414 3.19225 12.6275V13.5783C2.90377 13.64 2.62478 13.7396 2.36317 13.8739C1.9917 14.0684 1.66054 14.3323 1.38866 14.6516V12.0016C1.38866 6.14029 6.1395 1.38866 12.0008 1.38866C17.8621 1.38866 22.6137 6.1395 22.6137 12.0008V12.0016L22.6121 14.6524Z" fill="black"/>
</g>
<defs>
<clipPath id="clip0_17_25">
<rect width="24" height="37.0464" fill="white"/>
</clipPath>
</defs>
</svg>
