<svg width="24" height="24" viewBox="0 0 24 24" fill="none" xmlns="http://www.w3.org/2000/svg">
<g clip-path="url(#clip0_15_15)">
<path d="M3.48955 0C2.08689 0 0 0.765836 0 2.87639C0 3.90071 1.07944 7.6277 1.71516 8.63219L2.13029 11.6727V22.4371C2.13131 23.2997 2.72516 23.9994 3.4579 24H3.52377C4.2565 23.9988 4.85035 23.2997 4.85086 22.4371V11.6721L5.26548 8.63158C5.90017 7.6277 6.98064 3.90252 6.98064 2.87579C6.97911 0.765836 4.89222 0 3.48955 0ZM3.95473 22.4371C3.95421 22.7178 3.7612 22.945 3.52274 22.9456H3.45687C3.21842 22.945 3.0254 22.7178 3.02489 22.4371V12.1578H3.95421V22.4371H3.95473ZM4.02111 11.1028H2.95902L2.66235 8.92854H4.31726L4.02111 11.1028ZM4.63129 7.87296H2.34833C1.90562 7.05302 0.896132 3.77448 0.896132 2.87639C0.896132 1.55031 2.48721 1.05498 3.48955 1.05498C4.4924 1.05498 6.08297 1.54971 6.08297 2.87639C6.08297 3.77568 5.074 7.05302 4.63129 7.87296Z" fill="black"/>
<path d="M14.238 2.45139H8.16168C7.91403 2.45139 7.71387 2.68763 7.71387 2.97918C7.71387 2.9918 7.71438 3.00442 7.71489 3.01705C7.78229 4.1105 8.78514 7.64272 9.42443 8.63398L9.83905 11.6721V22.4371C9.84007 23.2997 10.4339 23.9994 11.1667 24H11.2325C11.9653 23.9988 12.5596 23.2997 12.5601 22.4371V11.6721L12.9742 8.63398C13.614 7.64272 14.6164 4.1105 14.6838 3.01705C14.7017 2.7267 14.5163 2.47423 14.2697 2.45259C14.26 2.45139 14.2492 2.45139 14.238 2.45139ZM11.665 22.4371C11.6645 22.7178 11.4715 22.945 11.233 22.9456H11.1672C10.9287 22.945 10.7357 22.7178 10.7352 22.4371V12.1578H11.665V22.4371ZM11.7309 11.1028H10.6693L10.3726 8.92853H12.0276L11.7309 11.1028ZM12.3411 7.87295H10.0591C9.69557 7.19608 8.93884 4.82944 8.68812 3.50576H13.7116C13.4609 4.82704 12.7041 7.19548 12.3411 7.87295Z" fill="black"/>
<path d="M23.4521 4.21569L21.0951 4.84086C20.8735 4.89917 20.7239 5.14323 20.7468 5.40893L21.0098 8.42659V22.4365C21.0108 23.2997 21.6047 23.9988 22.3379 23.9994H22.4038C23.1365 23.9982 23.7309 23.2991 23.7314 22.4365V8.42358L23.9974 4.77534C24.0184 4.485 23.8356 4.22952 23.5889 4.20487C23.5435 4.20006 23.497 4.20427 23.4526 4.21569H23.4521V4.21569ZM22.8378 22.4371C22.8373 22.7178 22.6443 22.945 22.4058 22.9456H22.34C22.1015 22.9456 21.908 22.7178 21.908 22.4371V12.1578H22.8378V22.4371ZM22.8378 11.1028H21.908V8.92793H22.8378V11.1028ZM22.8741 7.87295H21.8646L21.6807 5.7672L23.0533 5.40292L22.8741 7.87295Z" fill="black"/>
<path d="M18.253 4.8469C17.7945 4.23856 17.0035 4.18325 16.4868 4.72307C16.4495 4.76214 16.4148 4.80302 16.3816 4.8469L16.0369 5.30255C15.8026 5.61574 15.6907 6.03112 15.7295 6.4459L15.9552 8.43503V22.4371C15.9563 23.2997 16.5501 23.9994 17.2828 24H17.3487C18.0814 23.9988 18.6758 23.2997 18.6763 22.4371V8.43503L18.9035 6.42967C18.9388 6.0197 18.8269 5.61093 18.5946 5.30255L18.253 4.8469ZM17.7822 22.4371C17.7817 22.7178 17.5887 22.945 17.3502 22.9456H17.2844C17.0459 22.945 16.8529 22.7178 16.8524 22.4371V12.1578H17.7817V22.4371H17.7822ZM17.7822 11.1028H16.8529V8.92795H17.7822V11.1028ZM17.8379 7.87297H16.7967L16.6206 6.32266C16.6109 6.20605 16.6425 6.09063 16.7084 6.00287L17.052 5.54721C17.1822 5.37469 17.4064 5.35906 17.553 5.51235C17.5637 5.52317 17.5734 5.53519 17.5826 5.54721L17.9262 6.00226C17.9895 6.08522 18.0217 6.19462 18.0151 6.30583L17.8379 7.87297Z" fill="black"/>
</g>
<defs>
<clipPath id="clip0_15_15">
<rect width="24" height="24" fill="white"/>
</clipPath>
</defs>
</svg>
