<svg width="25" height="24" viewBox="0 0 25 24" fill="none" xmlns="http://www.w3.org/2000/svg">
<path d="M11.2054 18.2251C10.4352 17.9041 9.5532 18.0806 8.95707 18.6745C8.87703 18.7507 8.8053 18.8355 8.74242 18.9272C8.63016 19.077 8.53816 19.2423 8.46904 19.4177C8.231 20.0201 8.27206 20.7009 8.5813 21.2687C8.89418 21.844 9.44457 22.2422 10.0776 22.3515C10.1909 22.3718 10.3058 22.3819 10.4211 22.3819C11.5827 22.3793 12.5219 21.4111 12.5193 20.2201C12.5172 19.3425 11.998 18.554 11.2054 18.2251ZM11.3993 20.9099V20.9115C11.1441 21.3039 10.6883 21.507 10.2346 21.4297C9.58438 21.3236 9.14105 20.6972 9.24396 20.0303C9.25799 19.9402 9.28138 19.8522 9.31464 19.7674C9.3531 19.6688 9.40456 19.5766 9.46796 19.4934C9.47368 19.4859 9.47888 19.4785 9.48407 19.471C9.51422 19.4268 9.54956 19.3862 9.58854 19.3494C10.061 18.8814 10.8135 18.8947 11.2699 19.3793C11.6597 19.7941 11.7142 20.4328 11.3993 20.9099Z" fill="black"/>
<path d="M5.37869 10.541C4.36574 9.96042 3.08616 10.3315 2.51965 11.3706C2.03266 12.2641 2.226 13.3853 2.98117 14.0538C3.45829 14.4803 4.09807 14.6616 4.72123 14.5464C4.90418 14.515 5.08193 14.4569 5.24876 14.3737C5.34699 14.3295 5.44158 14.2756 5.53045 14.2132C6.493 13.5484 6.74767 12.2086 6.09956 11.2213C5.91454 10.9398 5.66766 10.7068 5.37817 10.5415L5.37869 10.541ZM5.01904 13.4381L5.0128 13.4423C4.96499 13.4754 4.91457 13.5036 4.86208 13.5266C4.76853 13.574 4.66874 13.6065 4.56635 13.6241C3.91981 13.743 3.30133 13.3016 3.18543 12.6378C3.08668 12.0732 3.385 11.5145 3.9011 11.2954C4.04766 11.2351 4.20358 11.2037 4.36158 11.2032C4.56219 11.2032 4.75969 11.2565 4.93484 11.3572C5.50915 11.6846 5.71548 12.4272 5.39636 13.0163C5.30489 13.1854 5.17548 13.3298 5.01852 13.4375H5.01904V13.4381Z" fill="black"/>
<path d="M24.4269 10.1022C24.3276 10.0319 24.205 10.0041 24.0859 10.026L12.2927 12.2017L16.7406 0.901376C16.8346 0.661999 16.7219 0.389033 16.4885 0.292003C14.4984 -0.533824 12.2324 0.451943 11.4274 2.49332C11.4268 2.49492 11.4258 2.49652 11.4253 2.49865L8.54753 9.80794C8.14889 10.8092 8.28246 11.9501 8.90094 12.8255L7.99765 12.9918C8.30221 10.9291 6.91921 9.00397 4.90837 8.69155C3.23016 8.43085 1.59612 9.38036 0.951133 10.9904C0.459987 12.2401 0.637216 13.662 1.41993 14.7442C2.23851 15.9091 3.65737 16.4577 5.02167 16.1368L5.04246 16.1315L8.29702 15.5317L7.01224 18.7961C6.42754 20.1006 6.66038 21.6377 7.60421 22.6981C8.32092 23.5159 9.33856 23.9877 10.4102 24C10.6384 24 10.866 23.9781 11.0901 23.9355C13.0889 23.5548 14.4085 21.5838 14.0374 19.5334C13.8077 18.2651 12.9632 17.2047 11.7969 16.7216C11.4216 16.566 11.024 16.4748 10.6197 16.4513L11.0396 15.384C11.628 16.0787 12.4798 16.4785 13.3763 16.4812C13.5557 16.4812 13.7344 16.4647 13.9112 16.4321L21.4738 15.0359C23.5865 14.6488 24.9934 12.5781 24.6161 10.4109C24.6155 10.4082 24.615 10.4061 24.615 10.4034C24.5937 10.2814 24.5261 10.1731 24.4269 10.1022ZM9.39313 10.1598L12.2698 2.84892C12.8161 1.44944 14.2786 0.670529 15.7089 1.0176L11.2325 12.3958L9.94924 12.632C9.27151 12.0114 9.04907 11.0203 9.39313 10.1582V10.1598ZM11.4559 17.5896C12.8743 18.1771 13.5593 19.833 12.986 21.2879C12.6316 22.1879 11.8535 22.8399 10.9232 23.0169C9.93729 23.1928 8.93265 22.8308 8.27051 22.061C7.57511 21.2693 7.41035 20.1273 7.85161 19.1629L9.35623 15.3392L10.1311 15.1958L9.50591 16.7845C9.41184 17.0239 9.52462 17.2969 9.75798 17.3934C9.83958 17.427 9.92897 17.436 10.0152 17.419L10.048 17.4126C10.0776 17.4056 10.1078 17.4008 10.1379 17.3982C10.5859 17.3486 11.0391 17.4142 11.4559 17.5896ZM23.2305 12.8553C22.7814 13.5207 22.0907 13.9739 21.3137 14.1141L13.75 15.5114C12.8145 15.6794 11.8811 15.2049 11.445 14.3396C11.3671 14.1834 11.2101 14.0847 11.0391 14.0847C11.0131 14.0847 10.9866 14.0869 10.9612 14.0917L10.7902 14.1231C10.7876 14.1231 10.785 14.1231 10.7819 14.1231L9.72991 14.3177L4.8512 15.2166C4.83612 15.2193 4.82105 15.223 4.8065 15.2278C3.80602 15.4586 2.76759 15.0572 2.16471 14.2063C1.56442 13.3842 1.42409 12.3009 1.79362 11.3466C2.37416 9.8943 3.99208 9.20016 5.40783 9.79567C6.28306 10.1641 6.91505 10.9654 7.08292 11.9202C7.16504 12.3718 7.13646 12.8372 6.99977 13.2744C6.99301 13.2941 6.98573 13.3133 6.97794 13.332C6.96546 13.3639 6.95299 13.3954 6.94208 13.4285C6.85892 13.6721 6.98365 13.9387 7.22117 14.0245C7.29549 14.0512 7.37553 14.0576 7.45297 14.0432L23.7637 11.0336C23.7809 11.6835 23.5943 12.3222 23.2305 12.8553Z" fill="black"/>
</svg>
