<svg width="24" height="27" viewBox="0 0 24 27" fill="none" xmlns="http://www.w3.org/2000/svg">
<g clip-path="url(#clip0_17_32)">
<path d="M22.7272 12.7426V7.46854C22.7272 7.19352 22.5045 6.97022 22.2295 6.97022H22.2289H19.4969C19.2219 6.97022 18.9986 7.19295 18.9986 7.46797V7.46854V12.6756H18.027C18.3003 12.2864 18.4469 11.8227 18.4463 11.3471V2.32568C18.4452 1.04153 17.4048 0.00113642 16.1212 0H7.87708C6.59349 0.00113642 5.5531 1.04153 5.5514 2.32568V11.3471C5.5514 11.8227 5.698 12.2864 5.97074 12.6756H5.13718V8.01572C5.13718 7.74014 4.91387 7.5174 4.63886 7.5174H2.5058C2.23022 7.5174 2.00748 7.74071 2.00748 8.01572V12.6756H1.74611C0.781855 12.6767 0.00113642 13.458 0 14.4217V14.4689C0.00113642 15.4325 0.781855 16.2138 1.74611 16.215H3.52517L2.7865 25.0847C2.72002 25.8819 3.31209 26.5819 4.10929 26.6484C4.86046 26.7109 5.53435 26.187 5.65822 25.4433L6.76396 18.8123C7.02533 18.9736 7.32648 19.0589 7.63388 19.0594H16.2832C16.6195 19.06 16.9485 18.9583 17.2264 18.7685L18.3395 25.4438C18.4702 26.2331 19.2157 26.7672 20.0049 26.6365C20.7498 26.5132 21.2754 25.8382 21.2124 25.0858L20.4737 16.215H22.2539C23.2176 16.2138 23.9989 15.4331 24 14.4689V14.4217C23.9983 13.6404 23.479 12.9552 22.7272 12.7426ZM19.9958 7.96742H21.7306V8.87201H19.9958V7.96742V7.96742ZM19.9958 9.86865H21.7306V10.7738H19.9958V9.86865V9.86865ZM19.9958 11.7704H21.7306V12.675H19.9958V11.7704V11.7704ZM6.54861 2.32568C6.54974 1.59212 7.14409 0.998343 7.87708 0.997206H16.1206C16.8542 0.998343 17.448 1.59269 17.4491 2.32568V11.3471C17.448 12.0807 16.8536 12.6745 16.1206 12.6756H7.87708C7.14352 12.6745 6.54917 12.0801 6.54861 11.3471V2.32568ZM3.00412 8.51347H4.13997V12.6756H3.00412V8.51347ZM4.67522 25.279C4.63999 25.4972 4.45078 25.6575 4.22975 25.6569C3.9803 25.6569 3.77859 25.4546 3.77859 25.2057C3.77859 25.1927 3.77916 25.1796 3.78029 25.1665L4.52578 16.2144H5.96051V17.3843C5.96051 17.4355 5.96335 17.4821 5.96676 17.527V17.5349L4.67522 25.279ZM16.9605 17.1269V17.3849C16.9605 17.7588 16.6576 18.0617 16.2837 18.0622H7.63388C7.29182 18.0594 7.00431 17.8037 6.96169 17.4639C6.95828 17.4378 6.95658 17.4116 6.95658 17.3855V16.215H16.9599V17.1269H16.9605ZM20.2186 25.1677C20.2413 25.416 20.0583 25.6353 19.81 25.658C19.5737 25.6796 19.3606 25.5137 19.3236 25.279L17.956 17.086V16.215H19.4719L20.2174 25.1671L20.2186 25.1677ZM23.0011 14.4689C23.0005 14.8814 22.6664 15.2161 22.2539 15.2178H1.74611C1.33302 15.2172 0.997774 14.882 0.997206 14.4689V14.4217C0.997774 14.0086 1.33302 13.6734 1.74611 13.6728H22.2539C22.667 13.6734 23.0022 14.0086 23.0028 14.4217L23.0011 14.4689Z" fill="black"/>
<path d="M13.3614 16.6406H10.5562C10.2806 16.6406 10.0579 16.8639 10.0579 17.1389C10.0579 17.4145 10.2812 17.6372 10.5562 17.6372H13.3614C13.637 17.6372 13.8597 17.4139 13.8597 17.1389C13.8597 16.8639 13.6364 16.6406 13.3614 16.6406Z" fill="black"/>
<path d="M14.8371 2.46886L8.85499 3.86438C8.58679 3.92688 8.42031 4.19508 8.48338 4.46327C8.53622 4.68828 8.7368 4.84795 8.96749 4.84795C9.00556 4.84795 9.0442 4.84397 9.0817 4.83488L15.0632 3.43993C15.3314 3.37686 15.4973 3.10866 15.4348 2.84047C15.3718 2.57227 15.1036 2.40636 14.8354 2.46886H14.8371Z" fill="black"/>
<path d="M14.8371 5.48834L8.85499 6.88386C8.58679 6.94637 8.42031 7.21456 8.48338 7.48276C8.53622 7.70777 8.7368 7.86743 8.96749 7.86743C9.00613 7.86743 9.0442 7.86289 9.0817 7.85436L15.0638 6.45884C15.332 6.39577 15.4985 6.12758 15.4354 5.85938C15.3723 5.59119 15.1041 5.4247 14.836 5.48778L14.8371 5.48834Z" fill="black"/>
<path d="M14.8371 8.50837L8.85499 9.90389C8.58679 9.96639 8.42031 10.2346 8.48338 10.5028C8.53622 10.7278 8.7368 10.8875 8.96749 10.8875C9.00556 10.8875 9.0442 10.8835 9.0817 10.8744L15.0638 9.47887C15.332 9.4158 15.4979 9.1476 15.4354 8.87941C15.3723 8.61121 15.1041 8.4453 14.836 8.5078L14.8371 8.50837Z" fill="black"/>
</g>
<defs>
<clipPath id="clip0_17_32">
<rect width="24" height="26.6558" fill="white"/>
</clipPath>
</defs>
</svg>
