<svg width="24" height="31" viewBox="0 0 24 31" fill="none" xmlns="http://www.w3.org/2000/svg">
<g clip-path="url(#clip0_17_39)">
<path d="M15.3225 7.20079L19.1412 3.6194C19.1458 3.61547 19.1478 3.61023 19.1517 3.60629C19.1786 3.57811 19.2028 3.54796 19.2231 3.51518C19.2323 3.50142 19.2434 3.48897 19.2513 3.47455C19.2539 3.46996 19.2585 3.46668 19.2605 3.46144C19.2769 3.42604 19.29 3.38868 19.2992 3.35067C19.3031 3.34083 19.3064 3.33166 19.3096 3.32117C19.3096 3.31789 19.3129 3.31396 19.3136 3.31068C19.3155 3.29233 19.3169 3.27398 19.3169 3.25563C19.3306 3.18615 19.3247 3.1147 19.2998 3.0485C19.2959 3.03343 19.2952 3.01835 19.29 3.00328C19.29 2.99869 19.2854 2.99541 19.2834 2.99082V2.98689C19.2802 2.97837 19.2743 2.97247 19.271 2.96461C19.2618 2.94494 19.252 2.92659 19.2408 2.90824C19.2336 2.89251 19.2251 2.87743 19.2166 2.86236L19.2048 2.84531L17.3322 0.23924C17.224 0.0891414 17.0503 0 16.8655 0H16.8615H16.8576H7.13333C7.08352 0.000655451 7.03436 0.00720996 6.98651 0.0209744C6.97143 0.0255626 6.95636 0.0314617 6.94128 0.0380162C6.90982 0.0485034 6.87967 0.0616124 6.85149 0.0773432C6.83576 0.087175 6.82002 0.0976622 6.80495 0.108805C6.78004 0.125847 6.75645 0.144855 6.73482 0.165829C6.7204 0.180249 6.70729 0.194669 6.69418 0.209744C6.68107 0.225475 6.67451 0.229408 6.66599 0.240551L4.78157 2.86498C4.7606 2.89578 4.7429 2.92921 4.72848 2.96329C4.72455 2.97182 4.71799 2.97837 4.71406 2.98755V2.99213C4.67342 3.09701 4.6649 3.21106 4.6885 3.32052C4.69112 3.331 4.69636 3.34018 4.69898 3.35001C4.70816 3.38803 4.72061 3.42539 4.73766 3.46013C4.74028 3.46537 4.74421 3.46865 4.74683 3.47324C4.75535 3.48831 4.7665 3.50011 4.77567 3.51387C4.79665 3.54665 4.82024 3.5768 4.84712 3.60498C4.85105 3.60891 4.85302 3.61416 4.8576 3.61809L8.67626 7.19948C2.30986 9.03474 -1.36263 15.6843 0.472636 22.05C2.30855 28.4164 8.95745 32.0889 15.3238 30.2537C21.6902 28.4184 25.3627 21.7695 23.5275 15.4031C22.385 11.4402 19.2867 8.34193 15.3238 7.19948L15.3225 7.20079ZM13.7953 7.05724L15.2852 3.88027L15.3343 3.77605H17.2941L13.7953 7.05724ZM9.93407 3.7754H14.0647L11.9994 8.17544L9.93407 3.7754ZM20.2496 18.7262C20.2496 23.2829 16.5554 26.9771 11.9987 26.9771C7.44205 26.9771 3.74793 23.2829 3.74793 18.7262C3.74793 14.1695 7.44205 10.4754 11.9987 10.4754C16.5535 10.4813 20.2437 14.1722 20.2496 18.7262ZM16.8596 1.56325L17.6251 2.62508H16.094L16.8596 1.56325ZM15.7348 1.15032L15.103 2.02993L14.8729 2.34848L13.5784 1.20472L13.5168 1.15032H15.7348ZM11.9987 1.34236L13.3457 2.53201L13.4512 2.62508H10.5463L11.9987 1.34236ZM10.4794 1.15032L9.67517 1.86083L9.12262 2.34979L8.25808 1.15032H10.4794ZM7.13595 1.56063L7.9048 2.62639H6.36973L7.13595 1.56063ZM6.70335 3.7754H8.66315L8.71231 3.87962L10.2028 7.05724L6.70335 3.7754ZM11.9987 29.5733C6.00923 29.5746 1.15234 24.7203 1.15103 18.7302C1.14972 13.636 4.6944 9.22744 9.67058 8.1348L10.9972 9.3782C5.83488 9.9314 2.09881 14.5654 2.65201 19.7278C3.20521 24.8901 7.83925 28.6262 13.0016 28.073C18.1639 27.5198 21.9 22.8857 21.3468 17.7234C20.8749 13.3247 17.4003 9.85012 13.0016 9.3782L14.3282 8.1348C20.1788 9.41949 23.8801 15.2032 22.5954 21.0537C21.5034 26.0299 17.0936 29.5746 11.9987 29.5733Z" fill="black"/>
</g>
<defs>
<clipPath id="clip0_17_39">
<rect width="24" height="30.7262" fill="white"/>
</clipPath>
</defs>
</svg>
